{"glyphs":{"A":{"ha":958,"x_min":35,"x_max":923,"o":"m 35 0 l 402 1010 l 551 1010 l 923 0 l 787 0 l 573 600 q 527 738 553 655 q 464 950 501 821 l 488 950 q 425 735 452 820 q 380 600 398 651 l 172 0 l 35 0 m 220 282 l 220 395 l 739 395 l 739 282 l 220 282 z "},"B":{"ha":909,"x_min":122,"x_max":830,"o":"m 122 0 l 122 1010 l 480 1010 q 655 974 586 1010 q 757 877 724 938 q 791 743 791 817 q 768 635 791 677 q 707 568 745 593 q 625 530 669 543 l 625 521 q 720 488 673 518 q 799 404 767 458 q 830 269 830 349 q 795 132 830 193 q 686 36 760 71 q 492 0 611 0 l 122 0 m 251 114 l 488 114 q 656 159 606 114 q 706 271 706 205 q 680 364 706 321 q 607 433 654 407 q 495 458 560 458 l 251 458 l 251 114 m 251 567 l 473 567 q 572 588 528 567 q 642 649 616 610 q 667 740 667 688 q 622 851 667 806 q 477 897 576 897 l 251 897 l 251 567 z "},"C":{"ha":1015,"x_min":83,"x_max":939,"o":"m 531 -14 q 300 49 401 -14 q 141 228 199 112 q 83 505 83 345 q 141 782 83 665 q 300 961 199 898 q 531 1024 401 1024 q 676 1002 608 1024 q 798 936 744 979 q 889 832 852 893 q 939 692 925 770 l 810 692 q 773 784 799 745 q 709 850 747 823 q 626 891 671 878 q 531 905 581 905 q 367 859 440 905 q 251 723 294 812 q 208 505 208 634 q 251 287 208 376 q 368 152 294 197 q 531 106 441 106 q 626 120 581 106 q 709 160 671 134 q 773 227 747 187 q 810 318 799 267 l 939 318 q 889 180 926 241 q 799 75 853 119 q 676 9 745 32 q 531 -14 608 -14 z "},"D":{"ha":1002,"x_min":122,"x_max":920,"o":"m 437 0 l 193 0 l 193 114 l 429 114 q 634 161 553 114 q 755 296 715 208 q 795 507 795 385 q 755 716 795 629 q 637 850 715 803 q 441 897 559 897 l 188 897 l 188 1010 l 450 1010 q 703 950 598 1010 q 864 777 808 890 q 920 507 920 664 q 863 236 920 349 q 699 61 807 122 q 437 0 591 0 m 251 1010 l 251 0 l 122 0 l 122 1010 l 251 1010 z "},"E":{"ha":835,"x_min":122,"x_max":744,"o":"m 122 0 l 122 1010 l 738 1010 l 738 897 l 251 897 l 251 567 l 705 567 l 705 453 l 251 453 l 251 114 l 744 114 l 744 0 l 122 0 z "},"F":{"ha":820,"x_min":122,"x_max":733,"o":"m 122 0 l 122 1010 l 733 1010 l 733 897 l 251 897 l 251 551 l 687 551 l 687 437 l 251 437 l 251 0 l 122 0 z "},"G":{"ha":1036,"x_min":83,"x_max":949,"o":"m 535 -14 q 298 50 400 -14 q 140 229 197 113 q 83 505 83 345 q 140 782 83 665 q 297 961 197 898 q 527 1024 397 1024 q 676 1000 607 1024 q 801 932 746 977 q 892 828 856 888 q 942 694 928 767 l 809 694 q 768 781 793 743 q 706 848 742 820 q 626 890 671 876 q 528 905 581 905 q 366 859 439 905 q 251 724 294 813 q 208 505 208 635 q 251 287 208 376 q 368 152 294 198 q 535 106 442 106 q 686 142 621 106 q 787 245 751 178 q 823 403 823 312 l 862 395 l 562 395 l 562 508 l 949 508 l 949 397 q 896 180 949 272 q 749 37 842 87 q 535 -14 656 -14 z "},"H":{"ha":1032,"x_min":122,"x_max":910,"o":"m 122 0 l 122 1010 l 251 1010 l 251 574 l 781 574 l 781 1010 l 910 1010 l 910 0 l 781 0 l 781 460 l 251 460 l 251 0 l 122 0 z "},"I":{"ha":373,"x_min":122,"x_max":251,"o":"m 251 1010 l 251 0 l 122 0 l 122 1010 l 251 1010 z "},"J":{"ha":793,"x_min":68,"x_max":671,"o":"m 370 -14 q 152 65 236 -14 q 68 289 68 144 l 68 343 l 197 343 l 197 289 q 244 148 197 197 q 370 100 292 100 q 494 148 447 100 q 542 289 542 197 l 542 1010 l 671 1010 l 671 289 q 587 65 671 144 q 370 -14 503 -14 z "},"K":{"ha":933,"x_min":122,"x_max":895,"o":"m 210 289 l 210 427 q 279 517 245 474 q 349 602 313 561 q 423 684 385 644 l 725 1010 l 894 1010 l 463 548 l 456 549 l 210 289 m 122 0 l 122 1010 l 251 1010 l 251 665 l 249 447 l 251 384 l 251 0 l 122 0 m 742 0 l 376 514 l 456 614 l 895 0 l 742 0 z "},"L":{"ha":785,"x_min":122,"x_max":719,"o":"m 122 0 l 122 1010 l 251 1010 l 251 114 l 719 114 l 719 0 l 122 0 z "},"M":{"ha":1255,"x_min":122,"x_max":1133,"o":"m 122 0 l 122 1010 l 305 1010 l 554 373 q 574 317 563 351 q 598 244 585 283 q 622 166 610 205 q 642 94 633 127 l 614 94 q 635 163 623 125 q 659 241 646 201 q 683 315 671 281 q 703 373 694 350 l 949 1010 l 1133 1010 l 1133 0 l 1006 0 l 1006 577 q 1006 648 1006 608 q 1007 732 1006 688 q 1009 822 1008 777 q 1011 910 1010 867 l 1022 910 q 992 815 1008 863 q 961 721 976 766 q 932 639 945 676 q 909 577 918 602 l 683 0 l 571 0 l 342 577 q 319 637 332 601 q 291 718 307 673 q 260 811 276 762 q 227 910 243 861 l 239 910 q 241 828 240 872 q 243 739 242 784 q 244 652 243 694 q 245 577 245 610 l 245 0 l 122 0 z "},"N":{"ha":1046,"x_min":122,"x_max":924,"o":"m 122 0 l 122 1010 l 274 1010 l 685 364 q 724 300 701 339 q 774 211 747 260 q 827 105 801 161 l 808 105 q 800 217 802 163 q 796 315 797 270 q 795 391 795 359 l 795 1010 l 924 1010 l 924 0 l 771 0 l 405 575 q 354 657 380 615 q 296 758 329 700 q 216 901 264 816 l 239 901 q 245 762 243 826 q 250 651 248 699 q 252 576 252 604 l 252 0 l 122 0 z "},"O":{"ha":1062,"x_min":83,"x_max":979,"o":"m 532 -14 q 301 49 402 -14 q 141 228 199 112 q 83 505 83 345 q 141 782 83 665 q 301 961 199 898 q 532 1024 402 1024 q 762 961 661 1024 q 921 782 863 898 q 979 505 979 665 q 921 228 979 345 q 762 49 863 112 q 532 -14 661 -14 m 532 106 q 695 152 622 106 q 811 287 768 197 q 854 505 854 376 q 811 724 854 635 q 695 859 768 813 q 532 905 622 905 q 368 859 441 905 q 251 723 294 812 q 208 505 208 634 q 251 287 208 376 q 368 152 294 198 q 532 106 441 106 z "},"P":{"ha":887,"x_min":122,"x_max":812,"o":"m 122 0 l 122 1010 l 468 1010 q 662 967 586 1010 q 775 852 739 924 q 812 689 812 779 q 775 526 812 599 q 663 409 739 452 q 469 366 587 366 l 224 366 l 224 479 l 463 479 q 591 506 543 479 q 662 582 640 534 q 684 689 684 629 q 662 796 684 749 q 591 870 640 843 q 461 897 542 897 l 251 897 l 251 0 l 122 0 z "},"Q":{"ha":1062,"x_min":83,"x_max":979,"o":"m 490 316 l 624 316 l 736 168 l 765 129 l 933 -95 l 799 -95 l 689 53 l 661 91 l 490 316 m 532 -14 q 301 49 402 -14 q 141 228 199 112 q 83 505 83 345 q 141 782 83 665 q 301 961 199 898 q 532 1024 402 1024 q 762 961 661 1024 q 921 782 863 898 q 979 505 979 665 q 921 228 979 345 q 762 49 863 112 q 532 -14 661 -14 m 532 106 q 695 152 622 106 q 811 287 768 197 q 854 505 854 376 q 811 724 854 635 q 695 859 768 813 q 532 905 622 905 q 368 859 441 905 q 251 723 294 812 q 208 505 208 634 q 251 287 208 376 q 368 152 294 198 q 532 106 441 106 z "},"R":{"ha":894,"x_min":122,"x_max":852,"o":"m 122 0 l 122 1010 l 468 1010 q 662 970 586 1010 q 775 859 739 930 q 812 699 812 789 q 775 539 812 608 q 663 431 739 470 q 469 392 587 392 l 194 392 l 194 507 l 463 507 q 591 530 543 507 q 662 596 640 553 q 684 699 684 640 q 662 803 684 759 q 591 872 640 848 q 461 897 542 897 l 251 897 l 251 0 l 122 0 m 703 0 l 458 455 l 604 455 l 852 0 l 703 0 z "},"S":{"ha":891,"x_min":79,"x_max":812,"o":"m 446 -18 q 256 18 336 -18 q 130 116 176 53 q 79 264 85 180 l 211 264 q 250 171 216 208 q 335 116 283 134 q 446 98 387 98 q 569 120 514 98 q 655 183 623 142 q 687 277 687 224 q 660 357 687 326 q 587 407 632 387 q 487 441 541 427 l 365 476 q 175 575 243 511 q 107 740 107 640 q 153 889 107 825 q 278 989 199 954 q 454 1024 357 1024 q 631 989 554 1024 q 752 893 707 954 q 799 755 796 832 l 673 755 q 602 870 664 829 q 450 910 541 910 q 336 889 385 910 q 260 830 287 867 q 233 746 233 793 q 266 661 233 693 q 343 611 298 629 q 425 583 389 593 l 526 555 q 616 525 567 544 q 710 474 665 506 q 784 394 755 443 q 812 275 812 346 q 769 126 812 193 q 644 21 726 60 q 446 -18 562 -18 z "},"T":{"ha":897,"x_min":66,"x_max":830,"o":"m 66 897 l 66 1010 l 830 1010 l 830 897 l 513 897 l 513 0 l 385 0 l 385 897 l 66 897 z "},"U":{"ha":1034,"x_min":122,"x_max":911,"o":"m 517 -16 q 309 31 398 -16 q 171 159 220 77 q 122 344 122 240 l 122 1010 l 251 1010 l 251 354 q 283 225 251 281 q 375 136 315 168 q 517 103 435 103 q 660 136 600 103 q 751 225 719 168 q 783 354 783 281 l 783 1010 l 911 1010 l 911 344 q 863 159 911 240 q 725 31 814 77 q 517 -16 637 -16 z "},"V":{"ha":958,"x_min":35,"x_max":923,"o":"m 407 0 l 35 1010 l 171 1010 l 385 411 q 430 273 403 359 q 494 61 458 187 l 469 61 q 533 275 506 191 q 578 411 560 359 l 786 1010 l 923 1010 l 555 0 l 407 0 z "},"W":{"ha":1369,"x_min":35,"x_max":1333,"o":"m 311 0 l 35 1010 l 167 1010 l 327 391 q 351 290 340 341 q 374 186 363 239 q 394 78 385 134 l 378 78 q 399 186 389 134 q 422 290 410 239 q 448 391 435 341 l 611 1010 l 758 1010 l 920 391 q 945 290 933 341 q 968 186 957 239 q 990 78 980 134 l 972 78 q 994 186 983 134 q 1017 290 1004 239 q 1041 391 1029 341 l 1200 1010 l 1333 1010 l 1057 0 l 907 0 l 733 640 q 701 776 716 703 q 670 946 685 850 l 697 946 q 668 784 682 855 q 634 640 654 712 l 461 0 l 311 0 z "},"X":{"ha":947,"x_min":39,"x_max":909,"o":"m 39 0 l 434 565 l 434 469 l 61 1010 l 210 1010 l 356 796 q 409 716 389 749 q 447 652 430 684 q 486 578 465 621 l 464 578 q 503 652 486 621 q 542 716 520 683 q 595 796 563 749 l 744 1010 l 890 1010 l 517 475 l 517 570 l 909 0 l 760 0 l 583 256 q 535 329 555 298 q 498 389 515 359 q 460 461 481 419 l 488 461 q 451 391 468 421 q 413 330 433 361 q 363 256 393 299 l 185 0 l 39 0 z "},"Y":{"ha":943,"x_min":35,"x_max":907,"o":"m 407 0 l 407 414 l 35 1010 l 184 1010 l 385 684 q 445 579 418 629 q 498 454 471 530 l 447 454 q 501 582 475 531 q 559 684 528 632 l 759 1010 l 907 1010 l 536 414 l 536 0 l 407 0 z "},"Z":{"ha":873,"x_min":83,"x_max":791,"o":"m 88 0 l 88 91 l 540 763 q 605 854 570 808 q 674 945 640 900 l 688 903 q 563 898 626 899 q 437 897 500 897 l 83 897 l 83 1010 l 785 1010 l 785 918 l 340 257 q 272 161 308 209 q 199 66 235 113 l 185 108 q 310 113 248 112 q 434 114 372 114 l 791 114 l 791 0 l 88 0 z "},"a":{"ha":780,"x_min":61,"x_max":673,"o":"m 319 -18 q 189 9 248 -18 q 96 89 130 37 q 61 216 61 141 q 87 321 61 281 q 156 386 113 362 q 251 420 199 409 q 356 439 303 432 q 467 452 424 448 q 530 469 509 457 q 551 508 551 480 l 551 512 q 533 592 551 559 q 480 643 515 625 q 392 661 445 661 q 299 644 338 661 q 236 601 260 627 q 200 549 212 576 l 83 588 q 161 696 112 657 q 271 751 211 735 q 389 768 330 768 q 475 759 427 768 q 569 722 524 749 q 643 642 614 695 q 673 500 673 589 l 673 0 l 553 0 l 553 103 l 545 103 q 503 48 532 77 q 429 1 475 20 q 319 -18 384 -18 m 340 90 q 455 117 408 90 q 526 185 502 143 q 551 274 551 228 l 551 379 q 518 363 543 370 q 461 351 493 356 q 398 341 429 345 q 351 336 368 338 q 268 317 307 330 q 207 278 230 304 q 184 210 184 253 q 204 144 184 170 q 260 104 224 117 q 340 90 295 90 z "},"b":{"ha":850,"x_min":107,"x_max":780,"o":"m 459 -16 q 343 8 387 -16 q 275 65 299 33 q 239 117 252 96 l 225 117 l 225 0 l 107 0 l 107 1010 l 229 1010 l 229 637 l 239 637 q 275 688 252 657 q 341 743 298 719 q 458 768 385 768 q 626 720 553 768 q 739 585 698 673 q 780 377 780 497 q 739 168 780 256 q 626 32 699 80 q 459 -16 554 -16 m 441 93 q 560 131 512 93 q 632 234 608 170 q 656 378 656 299 q 632 520 656 457 q 561 621 608 584 q 441 659 513 659 q 323 623 371 659 q 252 525 276 588 q 228 378 228 463 q 252 230 228 294 q 325 129 277 165 q 441 93 372 93 z "},"c":{"ha":793,"x_min":71,"x_max":726,"o":"m 416 -16 q 235 33 313 -16 q 114 170 157 81 q 71 374 71 258 q 114 582 71 493 q 235 719 157 670 q 416 768 313 768 q 519 753 471 768 q 609 712 568 739 q 678 647 649 686 q 723 558 707 608 l 606 525 q 581 578 597 554 q 539 621 564 603 q 484 649 515 639 q 416 659 453 659 q 291 619 340 659 q 218 515 242 579 q 195 374 195 450 q 218 236 195 300 q 291 132 242 172 q 416 93 340 93 q 486 103 454 93 q 542 132 517 113 q 584 176 567 151 q 609 233 601 202 l 726 199 q 681 109 711 149 q 611 41 652 69 q 521 -2 570 13 q 416 -16 471 -16 z "},"d":{"ha":850,"x_min":71,"x_max":743,"o":"m 391 -16 q 224 32 297 -16 q 111 168 152 80 q 71 377 71 256 q 112 585 71 497 q 225 720 153 673 q 392 768 298 768 q 509 743 466 768 q 576 688 553 719 q 612 637 600 657 l 621 637 l 621 1010 l 743 1010 l 743 0 l 625 0 l 625 117 l 612 117 q 575 65 600 96 q 508 8 551 33 q 391 -16 464 -16 m 410 93 q 526 129 479 93 q 598 230 574 165 q 623 378 623 294 q 598 525 623 463 q 527 623 574 588 q 410 659 479 659 q 290 621 338 659 q 218 520 242 584 q 195 378 195 457 q 219 234 195 299 q 291 131 243 170 q 410 93 339 93 z "},"e":{"ha":810,"x_min":71,"x_max":742,"o":"m 426 -16 q 236 33 316 -16 q 114 169 157 81 q 71 373 71 256 q 113 578 71 490 q 232 718 155 667 q 412 768 309 768 q 531 748 472 768 q 637 683 589 728 q 713 566 685 639 q 742 389 742 494 l 742 338 l 153 338 l 153 441 l 676 441 l 619 403 q 596 535 619 477 q 526 626 572 593 q 412 659 480 659 q 294 626 343 659 q 220 538 245 592 q 194 422 194 484 l 194 354 q 223 211 194 270 q 305 122 252 153 q 427 92 357 92 q 508 105 471 92 q 571 144 545 118 q 612 209 597 170 l 730 176 q 670 76 712 119 q 566 8 628 33 q 426 -16 504 -16 z "},"f":{"ha":514,"x_min":14,"x_max":492,"o":"m 460 758 l 460 654 l 14 654 l 14 758 l 460 758 m 163 0 l 163 859 q 194 969 163 925 q 274 1036 224 1013 q 378 1058 323 1058 q 450 1051 422 1058 q 492 1038 479 1044 l 458 933 q 434 941 449 937 q 393 945 418 945 q 311 916 336 945 q 285 832 285 887 l 285 0 l 163 0 z "},"g":{"ha":852,"x_min":71,"x_max":745,"o":"m 414 -300 q 269 -278 330 -300 q 167 -222 208 -257 q 102 -145 126 -186 l 201 -81 q 242 -130 218 -103 q 307 -175 266 -156 q 414 -193 348 -193 q 564 -150 505 -193 q 623 -13 623 -106 l 623 139 l 611 139 q 575 87 598 117 q 508 35 551 58 q 391 12 464 12 q 227 55 300 12 q 113 181 155 98 q 71 382 71 264 q 112 586 71 500 q 226 720 153 673 q 393 768 299 768 q 510 744 467 768 q 578 688 554 720 q 614 637 602 657 l 626 637 l 626 758 l 745 758 l 745 -20 q 701 -179 745 -117 q 582 -271 656 -241 q 414 -300 507 -300 m 411 121 q 528 152 480 121 q 600 243 575 184 q 624 385 624 302 q 600 527 624 466 q 528 624 576 589 q 411 659 481 659 q 291 622 339 659 q 219 523 243 585 q 195 385 195 461 q 219 248 195 307 q 292 154 243 188 q 411 121 340 121 z "},"h":{"ha":821,"x_min":107,"x_max":714,"o":"m 229 454 l 229 0 l 107 0 l 107 1010 l 229 1010 l 229 574 l 208 574 q 307 724 243 680 q 457 768 371 768 q 592 736 534 768 q 682 641 650 705 q 714 481 714 578 l 714 0 l 591 0 l 591 471 q 546 608 591 559 q 420 658 500 658 q 323 634 366 658 q 254 565 279 610 q 229 454 229 519 z "},"i":{"ha":336,"x_min":84,"x_max":254,"o":"m 107 0 l 107 758 l 229 758 l 229 0 l 107 0 m 169 882 q 109 906 134 882 q 84 963 84 930 q 109 1020 84 997 q 169 1044 134 1044 q 229 1020 204 1044 q 254 963 254 997 q 229 906 254 930 q 169 882 204 882 z "},"j":{"ha":336,"x_min":-18,"x_max":254,"o":"m 106 758 l 229 758 l 229 -54 q 205 -178 230 -126 q 130 -256 180 -229 q 7 -283 81 -283 l -18 -283 l -18 -171 l 5 -171 q 82 -141 58 -171 q 106 -54 106 -111 l 106 758 m 168 882 q 109 906 134 882 q 83 963 83 930 q 109 1020 83 997 q 168 1044 134 1044 q 229 1020 203 1044 q 254 963 254 997 q 229 906 254 930 q 168 882 203 882 z "},"k":{"ha":762,"x_min":107,"x_max":743,"o":"m 222 273 l 222 424 l 244 424 l 568 758 l 720 758 l 369 398 l 355 398 l 222 273 m 107 0 l 107 1010 l 229 1010 l 229 0 l 107 0 m 587 0 l 296 371 l 383 457 l 743 0 l 587 0 z "},"l":{"ha":336,"x_min":107,"x_max":229,"o":"m 229 1010 l 229 0 l 107 0 l 107 1010 l 229 1010 z "},"m":{"ha":1217,"x_min":107,"x_max":1109,"o":"m 107 0 l 107 758 l 226 758 l 227 589 l 217 589 q 266 691 233 650 q 345 751 300 731 q 439 772 390 772 q 573 721 522 772 q 639 587 624 670 l 623 587 q 672 686 636 644 q 759 749 708 727 q 871 772 810 772 q 991 743 937 772 q 1077 657 1045 715 q 1109 511 1109 600 l 1109 0 l 987 0 l 987 508 q 941 625 987 590 q 834 661 895 661 q 746 639 783 661 q 689 581 709 618 q 669 495 669 543 l 669 0 l 547 0 l 547 520 q 505 622 547 583 q 399 661 463 661 q 316 640 355 661 q 253 578 277 619 q 229 477 229 538 l 229 0 l 107 0 z "},"n":{"ha":821,"x_min":107,"x_max":713,"o":"m 229 454 l 229 0 l 107 0 l 107 758 l 224 758 l 225 574 l 208 574 q 307 724 243 680 q 457 768 371 768 q 591 736 534 768 q 681 641 649 705 q 713 481 713 578 l 713 0 l 591 0 l 591 471 q 546 608 591 559 q 420 658 500 658 q 323 634 366 658 q 254 565 279 610 q 229 454 229 519 z "},"o":{"ha":833,"x_min":71,"x_max":762,"o":"m 416 -16 q 235 33 313 -16 q 114 170 157 81 q 71 374 71 258 q 114 582 71 493 q 235 719 157 670 q 416 768 313 768 q 597 719 519 768 q 719 582 675 670 q 762 374 762 493 q 719 170 762 258 q 597 33 675 81 q 416 -16 519 -16 m 416 93 q 542 132 492 93 q 615 236 591 172 q 639 374 639 300 q 615 514 639 450 q 542 619 591 579 q 416 659 492 659 q 291 619 340 659 q 218 515 242 579 q 195 374 195 450 q 218 236 195 300 q 291 132 242 172 q 416 93 340 93 z "},"p":{"ha":850,"x_min":107,"x_max":780,"o":"m 107 -283 l 107 758 l 225 758 l 225 637 l 239 637 q 275 688 252 657 q 341 743 298 719 q 458 768 385 768 q 626 720 553 768 q 739 585 698 673 q 780 377 780 497 q 739 168 780 256 q 626 32 699 80 q 459 -16 554 -16 q 343 8 387 -16 q 275 65 299 33 q 239 117 252 96 l 229 117 l 229 -283 l 107 -283 m 441 93 q 560 131 512 93 q 632 234 608 170 q 656 378 656 299 q 632 520 656 457 q 561 621 608 584 q 441 659 513 659 q 323 623 371 659 q 252 525 276 588 q 228 378 228 463 q 252 230 228 294 q 325 129 277 165 q 441 93 372 93 z "},"q":{"ha":850,"x_min":71,"x_max":743,"o":"m 743 -283 l 621 -283 l 621 117 l 612 117 q 575 65 600 96 q 508 8 551 33 q 391 -16 464 -16 q 224 32 297 -16 q 111 168 152 80 q 71 377 71 256 q 112 585 71 497 q 225 720 153 673 q 392 768 298 768 q 509 743 466 768 q 576 688 553 719 q 612 637 600 657 l 625 637 l 625 758 l 743 758 l 743 -283 m 410 93 q 526 129 479 93 q 598 230 574 165 q 623 378 623 294 q 598 525 623 463 q 527 623 574 588 q 410 659 479 659 q 290 621 338 659 q 218 520 242 584 q 195 378 195 457 q 219 234 195 299 q 291 131 243 170 q 410 93 339 93 z "},"r":{"ha":523,"x_min":107,"x_max":492,"o":"m 107 0 l 107 758 l 225 758 l 225 642 l 233 642 q 308 734 254 699 q 430 769 362 769 q 462 768 444 769 q 492 767 481 768 l 492 644 q 465 648 486 646 q 418 651 443 651 q 321 628 364 651 q 254 566 278 606 q 229 475 229 526 l 229 0 l 107 0 z "},"s":{"ha":733,"x_min":73,"x_max":664,"o":"m 365 -16 q 226 6 287 -16 q 126 74 165 29 q 73 184 87 119 l 189 212 q 251 120 205 149 q 363 91 296 91 q 490 125 443 91 q 537 205 537 159 q 510 271 537 245 q 426 310 482 297 l 300 340 q 146 415 197 364 q 96 547 96 467 q 133 662 96 612 q 233 740 170 711 q 377 768 296 768 q 510 744 455 768 q 598 680 564 721 q 650 585 633 639 l 539 557 q 487 631 524 597 q 378 664 451 664 q 265 633 310 664 q 220 554 220 602 q 250 487 220 512 q 347 446 281 461 l 462 418 q 614 343 565 394 q 664 214 664 292 q 626 95 664 147 q 521 14 589 43 q 365 -16 454 -16 z "},"t":{"ha":454,"x_min":14,"x_max":427,"o":"m 406 758 l 406 654 l 14 654 l 14 758 l 406 758 m 127 939 l 250 939 l 250 197 q 270 122 250 146 q 339 99 291 99 q 369 102 351 99 q 401 107 387 104 l 427 4 q 384 -6 408 -3 q 336 -9 359 -9 q 182 42 237 -9 q 127 187 127 94 l 127 939 z "},"u":{"ha":821,"x_min":107,"x_max":714,"o":"m 364 -9 q 230 22 288 -9 q 139 117 172 54 q 107 277 107 181 l 107 758 l 229 758 l 229 287 q 275 150 229 199 q 401 100 321 100 q 498 124 455 100 q 566 194 541 148 q 591 304 591 239 l 591 758 l 714 758 l 714 0 l 596 0 l 596 184 l 612 184 q 512 34 577 77 q 364 -9 448 -9 z "},"v":{"ha":781,"x_min":37,"x_max":744,"o":"m 326 0 l 37 758 l 170 758 l 332 309 q 375 169 357 239 q 413 35 393 100 l 368 35 q 406 169 388 100 q 449 309 424 239 l 610 758 l 744 758 l 454 0 l 326 0 z "},"w":{"ha":1137,"x_min":47,"x_max":1089,"o":"m 277 0 l 47 758 l 177 758 l 269 427 q 310 274 288 359 q 353 79 332 188 l 332 79 q 373 269 352 183 q 414 427 394 355 l 505 758 l 635 758 l 724 427 q 764 272 743 357 q 805 79 785 186 l 783 79 q 826 270 805 184 q 867 427 848 356 l 960 758 l 1089 758 l 859 0 l 738 0 l 640 343 q 610 450 625 395 q 583 561 596 504 q 555 677 569 618 l 582 677 q 554 561 568 618 q 526 449 541 504 q 497 343 512 394 l 399 0 l 277 0 z "},"x":{"ha":758,"x_min":44,"x_max":714,"o":"m 44 0 l 343 436 l 342 342 l 60 758 l 202 758 l 296 611 q 360 505 333 554 q 415 409 387 455 l 351 409 q 405 505 380 455 q 466 611 429 554 l 562 758 l 702 758 l 418 337 l 418 427 l 714 0 l 572 0 l 461 170 q 399 274 425 226 q 345 366 373 321 l 410 366 q 358 274 382 321 q 298 170 334 226 l 185 0 l 44 0 z "},"y":{"ha":781,"x_min":37,"x_max":744,"o":"m 95 -275 l 126 -169 l 139 -172 q 207 -177 176 -182 q 262 -147 237 -173 q 304 -67 286 -121 l 326 -4 l 37 758 l 170 758 l 332 309 q 375 169 357 238 q 412 35 393 100 l 368 35 q 405 169 387 100 q 448 309 423 239 l 611 758 l 744 758 l 411 -113 q 356 -213 388 -174 q 281 -270 323 -252 q 184 -289 238 -289 q 128 -284 152 -289 q 95 -275 104 -279 z "},"z":{"ha":767,"x_min":85,"x_max":682,"o":"m 85 0 l 85 91 l 511 637 l 511 645 l 99 645 l 99 758 l 668 758 l 668 661 l 255 121 l 255 113 l 682 113 l 682 0 l 85 0 z "}," ":{"ha":391,"x_min":0,"x_max":0,"o":""}}}
